<?xml version="1.0" encoding="UTF-8" standalone="no"?>
<!DOCTYPE svg PUBLIC "-//W3C//DTD SVG 1.1//EN" "http://www.w3.org/Graphics/SVG/1.1/DTD/svg11.dtd">
<!-- Created with Vectornator (http://vectornator.io/) -->
<svg height="100%" stroke-miterlimit="10" style="fill-rule:nonzero;clip-rule:evenodd;stroke-linecap:round;stroke-linejoin:round;" version="1.1" viewBox="0 0 1080 1080" width="100%" xml:space="preserve" xmlns="http://www.w3.org/2000/svg" xmlns:vectornator="http://vectornator.io" xmlns:xlink="http://www.w3.org/1999/xlink">
<defs/>
<g id="Layer-1" vectornator:layerName="Layer 1">
<path d="M165.683 37.5211L223.984 37.5211L223.984 416.623L441.952 416.623L441.952 467.892L165.683 467.892L165.683 37.5211Z" fill="white" opacity="1" stroke="none" vectornator:layerName="Text 1"/>
<path d="M814.908 376.236L746.647 376.236L674.576 486.685L601.627 376.236L537.467 377.701L643.229 529.166L532.779 690.006L600.162 690.006L678.092 572.232L753.678 690.006L820.475 690.006L710.025 529.166L814.908 376.236Z" fill="white" opacity="1" stroke="none" vectornator:layerName="Text 2"/>
<path d="M330.917 673.52C350.644 673.52 366.855 675.571 379.55 679.673C402.206 687.29 420.761 701.938 435.214 723.618C446.737 741.001 455.038 763.266 460.116 790.415C463.046 806.626 464.511 821.665 464.511 835.532C464.511 888.852 453.915 930.259 432.724 959.751C411.532 989.243 377.401 1003.99 330.331 1003.99L226.913 1003.99L226.913 673.52L330.917 673.52ZM168.319 1054.09L342.636 1054.09C401.816 1054.09 447.714 1033.09 480.331 991.098C509.433 953.208 523.984 904.673 523.984 845.493C523.984 799.79 515.39 758.481 498.202 721.567C467.929 656.333 415.878 623.716 342.05 623.716L168.319 623.716L168.319 1054.09Z" fill="white" opacity="1" stroke="none" vectornator:layerName="Text 3"/>
</g>
</svg>
